<svg xmlns="http://www.w3.org/2000/svg" width="320" height="84" viewBox="0 0 320 84">
  <defs>
    <linearGradient id="bg-mac" x1="0" y1="0" x2="0" y2="1">
      <stop offset="0" stop-color="#1d1d1f"/>
      <stop offset="1" stop-color="#000"/>
    </linearGradient>
  </defs>
  <rect width="320" height="84" rx="14" fill="url(#bg-mac)"/>
  <rect x="0.5" y="0.5" width="319" height="83" rx="13.5" fill="none" stroke="#3a3a3c" stroke-width="1"/>
  <!-- Apple glyph (simple-icons), white on dark -->
  <g fill="#fff" transform="translate(22 21) scale(1.85)">
    <path d="M17.05 20.28c-.98.95-2.05.8-3.08.35-1.09-.46-2.09-.48-3.24 0-1.44.62-2.2.44-3.06-.35C2.79 15.25 3.51 7.59 9.05 7.31c1.35.07 2.29.74 3.08.8 1.18-.24 2.31-.93 3.57-.84 1.51.12 2.65.72 3.4 1.8-3.12 1.87-2.38 5.98.48 7.13-.57 1.5-1.31 2.99-2.54 4.09zM12 7.25c-.15-2.23 1.66-4.07 3.74-4.25.29 2.58-2.34 4.5-3.74 4.25z"/>
  </g>
  <text x="92" y="36" font-family="-apple-system, system-ui, 'Segoe UI', Roboto, sans-serif"
        font-size="12" fill="#a1a1a6" letter-spacing="0.12em">DOWNLOAD FOR</text>
  <text x="92" y="62" font-family="-apple-system, system-ui, 'Segoe UI', Roboto, sans-serif"
        font-size="24" font-weight="700" fill="#fff">macOS</text>
</svg>
